HIERARCHY
ROOT Hips
{
	OFFSET 0.00000 0.00000 0.00000
	CHANNELS 6 Xposition Yposition Zposition Zrotation Yrotation Xrotation 
	JOINT LHipJoint
	{
		OFFSET 0 0 0
		CHANNELS 3 Zrotation Yrotation Xrotation
		JOINT LeftUpLeg
		{
			OFFSET 1.41496 -1.84582 0.78394
			CHANNELS 3 Zrotation Yrotation Xrotation
			JOINT LeftLeg
			{
				OFFSET 2.58040 -7.08960 0.00000
				CHANNELS 3 Zrotation Yrotation Xrotation
				JOINT LeftFoot
				{
					OFFSET 2.64719 -7.27309 0.00000
					CHANNELS 3 Zrotation Yrotation Xrotation
					JOINT LeftToeBase
					{
						OFFSET 0.20718 -0.56921 2.20259
						CHANNELS 3 Zrotation Yrotation Xrotation
						End Site
						{
							OFFSET 0.00000 -0.00000 1.14243
						}
					}
				}
			}
		}
	}
	JOINT RHipJoint
	{
		OFFSET 0 0 0
		CHANNELS 3 Zrotation Yrotation Xrotation
		JOINT RightUpLeg
		{
			OFFSET -1.40551 -1.84582 0.78394
			CHANNELS 3 Zrotation Yrotation Xrotation
			JOINT RightLeg
			{
				OFFSET -2.56572 -7.04926 0.00000
				CHANNELS 3 Zrotation Yrotation Xrotation
				JOINT RightFoot
				{
					OFFSET -2.57974 -7.08778 0.00000
					CHANNELS 3 Zrotation Yrotation Xrotation
					JOINT RightToeBase
					{
						OFFSET -0.26704 -0.73369 2.20815
						CHANNELS 3 Zrotation Yrotation Xrotation
						End Site
						{
							OFFSET -0.00000 -0.00000 1.16246
						}
					}
				}
			}
		}
	}
	JOINT LowerBack
	{
		OFFSET 0 0 0
		CHANNELS 3 Zrotation Yrotation Xrotation
		JOINT Spine
		{
			OFFSET -0.04690 2.05196 -0.07017
			CHANNELS 3 Zrotation Yrotation Xrotation
			JOINT Spine1
			{
				OFFSET 0.04085 2.05260 0.00800
				CHANNELS 3 Zrotation Yrotation Xrotation
				JOINT Neck
				{
					OFFSET 0 0 0
					CHANNELS 3 Zrotation Yrotation Xrotation
					JOINT Neck1
					{
						OFFSET -0.03582 1.80995 0.19301
						CHANNELS 3 Zrotation Yrotation Xrotation
						JOINT Head
						{
							OFFSET 0.00952 1.80195 -0.36389
							CHANNELS 3 Zrotation Yrotation Xrotation
							End Site
							{
								OFFSET 0.00392 1.85062 -0.14494
							}
						}
					}
				}
				JOINT LeftShoulder
				{
					OFFSET 0 0 0
					CHANNELS 3 Zrotation Yrotation Xrotation
					JOINT LeftArm
					{
						OFFSET 3.55224 1.39726 -0.13667
						CHANNELS 3 Zrotation Yrotation Xrotation
						JOINT LeftForeArm
						{
							OFFSET 5.14507 -0.00000 -0.00000
							CHANNELS 3 Zrotation Yrotation Xrotation
							JOINT LeftHand
							{
								OFFSET 3.50646 -0.00000 0.00000
								CHANNELS 3 Zrotation Yrotation Xrotation
								JOINT LeftFingerBase
								{
									OFFSET 0 0 0
									CHANNELS 3 Zrotation Yrotation Xrotation
									JOINT LeftHandIndex1
									{
										OFFSET 0.62997 -0.00000 0.00000
										CHANNELS 3 Zrotation Yrotation Xrotation
										End Site
										{
											OFFSET 0.50790 -0.00000 0.00000
										}
									}
								}
								JOINT LThumb
								{
									OFFSET 0 0 0
									CHANNELS 3 Zrotation Yrotation Xrotation
									End Site
									{
										OFFSET 0.51565 -0.00000 0.51565
									}
								}
							}
						}
					}
				}
				JOINT RightShoulder
				{
					OFFSET 0 0 0
					CHANNELS 3 Zrotation Yrotation Xrotation
					JOINT RightArm
					{
						OFFSET -3.06467 1.61290 -0.28813
						CHANNELS 3 Zrotation Yrotation Xrotation
						JOINT RightForeArm
						{
							OFFSET -5.23200 -0.00000 -0.00000
							CHANNELS 3 Zrotation Yrotation Xrotation
							JOINT RightHand
							{
								OFFSET -3.65641 -0.00000 0.00000
								CHANNELS 3 Zrotation Yrotation Xrotation
								JOINT RightFingerBase
								{
									OFFSET 0 0 0
									CHANNELS 3 Zrotation Yrotation Xrotation
									JOINT RightHandIndex1
									{
										OFFSET -0.65681 -0.00000 0.00000
										CHANNELS 3 Zrotation Yrotation Xrotation
										End Site
										{
											OFFSET -0.52953 -0.00000 0.00000
										}
									}
								}
								JOINT RThumb
								{
									OFFSET 0 0 0
									CHANNELS 3 Zrotation Yrotation Xrotation
									End Site
									{
										OFFSET -0.53762 -0.00000 0.53762
									}
								}
							}
						}
					}
				}
			}
		}
	}
}
MOTION
Frames: 11
Frame Time: .0083333
2.0485 18.0796 -4.5238 179.5920 -1.0642 -188.7110 0.0000 0.0000 0.0000 -15.2436 -2.3883 -29.0968 5.9945 14.4230 44.9597 -0.0818 -7.6878 -3.3606 0.0000 -0.0319 -0.0878 0.0000 0.0000 0.0000 13.7778 16.7698 -18.6919 -3.6533 -11.6842 34.6236 -0.4198 -11.0315 12.9714 -0.0004 -0.1216 0.3342 2.7421 -0.5581 16.5150 3.7079 -0.5653 2.6539 2.5480 -0.5417 -6.3991 -2.1808 -0.9016 -14.3454 -3.3777 0.9193 22.0077 -0.6309 0.1954 9.3205 -0.0000 0.0000 0.0000 -39.1899 32.9786 -7.7916 111.2531 -58.2225 -78.2959 -0.0000 0.0000 -8.9640 31.9636 -0.5576 -0.3479 -7.1250 0.0000 -0.0000 4.2245 29.3108 -1.6196 -0.0000 0.0000 0.0000 48.2229 -34.5767 3.7944 -42.6275 49.5518 -20.4168 0.0000 -0.0000 -8.1713 -23.6132 -0.9690 0.4236 7.1250 -0.0000 -0.0000 2.3552 -31.0324 0.8045
1.9976 17.7687 -4.9500 179.5580 -0.4367 -188.9540 0.0000 0.0000 0.0000 -15.5128 -2.3923 -28.4417 6.1828 14.6032 45.7111 0.0468 -8.2730 -6.6994 0.0245 1.0108 2.7785 0.0000 0.0000 0.0000 14.1164 16.6142 -17.9777 -4.0222 -12.1899 36.4071 -0.1732 -12.2881 10.7998 -0.9521 -6.2137 17.4058 2.7534 -0.2924 16.2035 3.7366 -0.1979 2.5392 2.4870 -0.3536 -6.3605 -2.2583 -0.9065 -14.3222 -3.3206 0.8675 21.6746 -0.6048 0.1646 9.1993 0.0000 -0.0000 0.0000 -42.7004 34.9695 -9.3788 116.7582 -57.1137 -82.9487 -0.0000 0.0000 -8.8226 33.2628 0.0785 0.0515 -7.1250 0.0000 -0.0000 5.2800 30.0523 -1.9334 0.0000 -0.0000 0.0000 51.7956 -34.7492 2.5121 -43.5893 50.0584 -21.1516 0.0000 -0.0000 -8.4999 -23.5208 -0.6110 0.2659 7.1250 -0.0000 -0.0000 2.4172 -30.6412 0.8484
1.9445 17.4846 -5.3522 179.5400 0.2082 -189.1780 0.0000 0.0000 0.0000 -15.7550 -2.6353 -27.9759 6.5253 14.9187 47.0551 0.2699 -8.4291 -10.2401 0.0513 1.4611 4.0185 0.0000 0.0000 0.0000 14.4145 16.4722 -17.4636 -4.5232 -12.8258 38.7199 0.1897 -14.5198 7.8481 -3.7092 -11.7631 34.8988 2.6167 -0.6524 16.0660 3.7463 0.3825 2.4310 2.3999 0.3902 -6.4359 -2.3071 -0.9288 -14.1970 -3.2769 0.7747 21.2296 -0.5926 0.1168 9.0207 -0.0000 -0.0000 0.0000 -46.6469 36.5101 -11.0658 121.7206 -55.8337 -87.0866 -0.0000 0.0000 -8.5751 34.7284 0.7785 0.5396 -7.1250 0.0000 -0.0000 6.4856 30.8898 -2.2488 -0.0000 -0.0000 0.0000 55.6417 -34.6473 0.9317 -44.2797 50.4107 -21.6822 0.0000 -0.0000 -8.7027 -23.4988 -0.2841 0.1235 7.1250 -0.0000 -0.0000 2.4248 -30.2849 0.8718
1.8907 17.1899 -5.7344 179.5120 0.8318 -189.3350 0.0000 0.0000 0.0000 -15.9629 -3.1500 -27.9146 7.0837 15.4020 49.1902 0.5617 -8.0717 -13.6631 0.0433 1.3434 3.6943 0.0000 0.0000 0.0000 14.5849 16.4152 -17.3544 -5.1943 -13.5993 41.6555 0.6469 -17.3105 4.4195 -6.6284 -15.0108 47.4543 2.6751 -0.3132 16.1090 3.7771 0.8307 2.2365 2.3067 0.5961 -6.6782 -2.5144 -0.1206 -13.9836 -3.0476 0.4278 20.7146 -0.6059 -0.5985 8.7936 -0.0000 0.0000 0.0000 -51.0436 37.5034 -12.8300 126.0953 -54.4539 -90.6773 -0.0000 0.0000 -8.1861 36.1878 1.4704 1.0754 -7.1250 0.0000 -0.0000 7.7036 31.7418 -2.5185 -0.0000 0.0000 0.0000 59.6778 -34.1497 -0.8629 -44.6670 50.6043 -21.9811 0.0000 -0.0000 -8.8052 -23.5850 -0.0408 0.0178 7.1250 -0.0000 -0.0000 2.3501 -30.0202 0.8597
1.8384 16.9097 -6.0882 179.4880 1.4050 -189.4640 0.0000 0.0000 0.0000 -16.1230 -3.8505 -28.1737 7.8526 16.0097 52.0299 0.8477 -7.2909 -16.4661 0.0139 0.7619 2.0939 0.0000 0.0000 0.0000 14.6700 16.4208 -17.5822 -6.0266 -14.4541 45.0884 1.1560 -20.1605 0.7747 -8.6585 -16.5829 54.9014 2.7039 0.0211 16.3891 3.8206 1.2892 2.0526 2.2388 0.8100 -7.0405 -2.4487 -0.2014 -13.7658 -3.1448 0.3454 20.0282 -0.6485 -0.6054 8.5200 0.0000 0.0000 0.0000 -55.8722 37.7968 -14.5899 129.8224 -53.0669 -93.6839 -0.0000 0.0000 -7.6376 37.6401 2.1546 1.6608 -7.1250 0.0000 -0.0000 8.9347 32.6102 -2.7399 0.0000 0.0000 0.0000 63.7733 -33.1391 -2.7293 -44.7496 50.6452 -22.0450 0.0000 -0.0000 -8.9213 -23.8245 0.0804 -0.0355 7.1250 -0.0000 -0.0000 2.1585 -29.8885 0.7963
1.7891 16.6491 -6.4149 179.4640 1.9160 -189.5410 0.0000 0.0000 0.0000 -16.2198 -4.6473 -28.7642 8.8209 16.6911 55.4688 1.0630 -6.3776 -18.4040 0.0001 -0.0495 -0.1359 0.0000 0.0000 0.0000 14.6690 16.4968 -18.1969 -7.0225 -15.3508 48.9595 1.6316 -22.5765 -2.6988 -9.8256 -17.3106 58.9037 2.6857 0.3497 16.8215 3.8782 1.7482 1.9070 2.2066 1.0280 -7.4483 -2.3418 -0.2853 -13.5609 -3.3124 0.2665 19.2275 -0.7194 -0.6100 8.2130 0.0000 0.0000 0.0000 -60.9717 37.2839 -16.1234 132.8270 -51.7897 -96.0657 -0.0000 0.0000 -6.9459 39.0510 2.7615 2.2383 -7.1250 0.0000 -0.0000 10.1441 33.4069 -2.9221 0.0000 0.0000 0.0000 67.7811 -31.6087 -4.4498 -44.5654 50.5538 -21.9027 0.0000 -0.0000 -9.1873 -24.2314 0.0924 -0.0416 7.1250 -0.0000 -0.0000 1.8378 -29.8759 0.6784
1.7443 16.4129 -6.7170 179.3680 2.3319 -189.5900 0.0000 0.0000 0.0000 -16.3357 -5.4317 -29.5525 9.9139 17.3612 59.2003 1.1811 -5.5931 -19.4505 0.0392 -1.2776 -3.5130 0.0000 0.0000 0.0000 14.5370 16.5463 -19.0986 -8.1327 -16.2160 53.0393 1.8715 -23.4832 -6.3389 -10.1819 -17.5109 60.0945 2.5492 0.6752 17.3520 3.9291 2.1884 1.8188 2.2311 1.2423 -7.8531 -2.2225 -0.3750 -13.3526 -3.5191 0.1819 18.3356 -0.8041 -0.6176 7.8779 -0.0000 -0.0000 0.0000 -66.0831 35.9576 -17.1351 135.0362 -50.7507 -97.7893 -0.0000 0.0000 -6.1861 40.4048 3.1770 2.7009 -7.1250 0.0000 -0.0000 11.3011 33.9809 -3.1059 -0.0000 -0.0000 0.0000 71.5827 -29.6439 -5.7974 -44.2064 50.3737 -21.6257 0.0000 -0.0000 -9.6777 -24.7686 0.0398 -0.0184 7.1250 -0.0000 -0.0000 1.4157 -29.9344 0.5205
1.7048 16.2067 -6.9977 179.1630 2.6468 -189.6580 0.0000 0.0000 0.0000 -16.5115 -6.1010 -30.3696 11.0468 17.9579 62.9334 1.1744 -5.2081 -19.4197 0.0945 -1.9828 -5.4580 0.0000 0.0000 0.0000 14.2733 16.4611 -20.1599 -9.3024 -16.9984 57.1301 2.0239 -24.2103 -8.9751 -10.3638 -17.6094 60.6974 2.2629 1.0036 17.9483 3.9617 2.6054 1.8157 2.3186 1.4528 -8.2092 -2.1204 -0.4787 -13.1677 -3.7270 0.0773 17.4031 -0.8872 -0.6356 7.5365 -0.0000 0.0000 0.0000 -70.9233 33.8918 -17.3898 136.3833 -50.0725 -98.8274 -0.0000 0.0000 -5.4437 41.5963 3.3490 2.9687 -7.1250 0.0000 -0.0000 12.3020 34.2486 -3.3099 -0.0000 0.0000 0.0000 75.0846 -27.3543 -6.5553 -43.7619 50.1473 -21.2840 0.0000 -0.0000 -10.3539 -25.3818 -0.0424 0.0201 7.1250 -0.0000 -0.0000 0.9333 -30.0260 0.3411
1.6690 16.0337 -7.2637 178.8060 2.8476 -189.7950 0.0000 0.0000 0.0000 -16.8197 -6.5884 -31.0566 12.1370 18.4480 66.4223 1.1038 -5.2299 -18.8067 0.1753 -2.6974 -7.4373 0.0000 0.0000 0.0000 13.8640 16.1569 -21.2084 -10.4683 -17.6649 61.0423 2.1445 -24.8721 -10.6310 -10.4977 -17.6804 61.1391 1.8309 1.3327 18.5594 3.9485 2.9866 1.9115 2.4416 1.6531 -8.4721 -2.0484 -0.6017 -13.0129 -3.8932 -0.0608 16.4862 -0.9547 -0.6698 7.2080 -0.0000 -0.0000 0.0000 -75.2293 31.2643 -16.7579 136.8158 -49.8473 -99.1586 -0.0000 0.0000 -4.8773 42.5967 3.3042 3.0335 -7.1250 0.0000 -0.0000 13.1152 34.2296 -3.5445 -0.0000 -0.0000 0.0000 78.2291 -24.8903 -6.5323 -43.3036 49.9098 -20.9327 0.0000 -0.0000 -11.0276 -25.9244 -0.0267 0.0130 7.1250 -0.0000 -0.0000 0.5053 -30.0093 0.1848
1.6351 15.8961 -7.5211 178.3100 2.9611 -190.0330 0.0000 0.0000 0.0000 -17.2800 -6.7729 -31.4778 13.1100 18.8215 69.4667 1.0583 -5.4763 -18.3892 0.3159 -3.6129 -9.9901 0.0000 0.0000 0.0000 13.3295 15.6416 -22.0692 -11.5742 -18.2048 64.6327 2.2388 -25.3904 -11.4916 -10.5897 -17.7284 61.4419 1.2987 1.6543 19.1443 3.8824 3.3264 2.1030 2.5705 1.8389 -8.6196 -2.0009 -0.7330 -12.8812 -3.9948 -0.2222 15.6443 -0.9999 -0.7156 6.9101 0.0000 0.0000 0.0000 -78.8480 28.3200 -15.3012 136.3067 -50.1120 -98.7687 -0.0000 0.0000 -4.6508 43.2463 3.0470 2.8623 -7.1250 0.0000 -0.0000 13.6020 33.9132 -3.7898 0.0000 0.0000 0.0000 80.9579 -22.3978 -5.5355 -42.8906 49.6922 -20.6172 0.0000 -0.0000 -11.4802 -26.2541 0.0846 -0.0417 7.1250 -0.0000 -0.0000 0.2450 -29.8854 0.0903
1.6012 15.7872 -7.7767 177.7490 3.0221 -190.3590 0.0000 0.0000 0.0000 -17.8121 -6.6139 -31.6332 13.9508 19.0991 72.0542 1.0498 -6.1020 -18.2912 0.4732 -4.4116 -12.2375 0.0000 0.0000 0.0000 12.7386 14.9617 -22.6012 -12.5783 -18.6246 67.8106 2.3144 -25.7928 -11.9794 -10.6451 -17.7570 61.6235 0.7662 1.9519 19.6400 3.7733 3.6247 2.3683 2.6623 2.0063 -8.6353 -1.9683 -0.8611 -12.7675 -4.0216 -0.3930 14.9424 -1.0206 -0.7673 6.6620 0.0000 -0.0000 0.0000 -81.7129 25.3084 -13.1899 134.8597 -50.8370 -97.6525 -0.0000 0.0000 -4.9098 43.4448 2.6543 2.5115 -7.1250 0.0000 -0.0000 13.6933 33.3955 -3.9932 0.0000 -0.0000 0.0000 83.2212 -20.0048 -3.4166 -42.5699 49.5209 -20.3730 0.0000 -0.0000 -11.5178 -26.2498 0.3039 -0.1499 7.1250 -0.0000 -0.0000 0.2480 -29.6409 0.0929
